<?xml version="1.0" encoding="utf-8"?>
<!-- Generator: Adobe Illustrator 25.4.1, SVG Export Plug-In . SVG Version: 6.00 Build 0)  -->
<svg version="1.1" id="Layer_1" xmlns="http://www.w3.org/2000/svg" xmlns:xlink="http://www.w3.org/1999/xlink" x="0px" y="0px"
	 viewBox="0 0 100 31" style="enable-background:new 0 0 100 31;" xml:space="preserve">
<g>
	<path d="M42.9,22.9V10.5c0-0.6-0.1-0.9-0.2-1.1c-0.2-0.3-0.5-0.4-1-0.4c-0.1,0-0.3,0-0.6,0.1c-0.3,0-0.5,0.1-0.6,0.1
		c-0.3,0-0.5-0.1-0.7-0.3c-0.2-0.2-0.3-0.4-0.3-0.7c0-0.6,0.5-1,1.4-1c0.3,0,0.9,0,1.5,0.1c0.7,0.1,1.2,0.1,1.5,0.1
		c0.3,0,0.8,0,1.5-0.1c0.7-0.1,1.2-0.1,1.5-0.1c0.8,0,1.1,0.3,1.1,1c0,0.6-0.3,1-0.9,1c-0.1,0-0.3,0-0.6-0.1C46.4,9,46.2,9,46,9
		c-0.7,0-1,0.5-1,1.5v12.7c0,1.7-0.6,2.5-1.8,2.5c-0.5,0-0.9-0.2-1.2-0.5c-0.2-0.2-0.4-0.6-0.6-1.2L35.2,10v12.3
		c0,0.5,0.1,0.9,0.2,1.1c0.2,0.3,0.5,0.4,1,0.4c0.1,0,0.3,0,0.6,0s0.5,0,0.6,0c0.6,0,0.9,0.3,0.9,1c0,0.7-0.4,1-1.2,1
		c-0.4,0-0.9,0-1.6-0.1c-0.7-0.1-1.3-0.1-1.6-0.1c-0.3,0-0.8,0-1.5,0.1s-1.1,0.1-1.5,0.1c-0.8,0-1.1-0.4-1.1-1.1
		c0-0.6,0.3-0.9,0.9-0.9c0.1,0,0.3,0,0.6,0c0.3,0,0.5,0,0.6,0c0.7,0,1.1-0.5,1.1-1.6V10.6C33.1,9.5,32.7,9,32,9
		c-0.1,0-0.3,0-0.6,0.1c-0.3,0-0.5,0.1-0.6,0.1c-0.6,0-0.9-0.3-0.9-1c0-0.6,0.4-1,1.3-1c0.3,0,0.7,0,1.3,0.1c0.6,0.1,1,0.1,1.3,0.1
		c0.2,0,0.4,0,0.8-0.1c0.3-0.1,0.6-0.1,0.8-0.1c0.5,0,0.8,0.2,1.1,0.6c0.2,0.2,0.4,0.6,0.6,1.2L42.9,22.9z"/>
	<path d="M52.2,10.5c0-1.1-0.4-1.6-1.2-1.6c-0.1,0-0.4,0-0.6,0.1c-0.3,0.1-0.5,0.1-0.6,0.1c-0.6,0-0.9-0.3-0.9-1c0-0.6,0.4-1,1.1-1
		c0.4,0,0.9,0,1.6,0.1c0.7,0.1,1.2,0.1,1.6,0.1h6.3c0.2,0,0.6,0,1.1-0.1s0.9-0.1,1.1-0.1c0.8,0,1.2,0.5,1.2,1.4c0,0.3,0,0.6-0.1,1.1
		c0,0.5-0.1,0.9-0.1,1.1c0,0.3,0,0.8,0.1,1.5c0,0.7,0.1,1.2,0.1,1.5c0,0.8-0.3,1.1-0.9,1.1c-0.3,0-0.5-0.1-0.7-0.4
		c-0.2-0.2-0.3-0.5-0.3-0.8c0-0.3,0-0.6,0.1-1.1c0-0.5,0.1-0.9,0.1-1.1c0-0.9-0.1-1.5-0.4-1.9c-0.3-0.3-0.9-0.5-1.7-0.5h-3.4
		c-0.6,0-0.9,0.2-1.1,0.5c-0.1,0.2-0.2,0.6-0.2,1.3v3.2c0,0.4,0.1,0.7,0.2,0.8c0.1,0.2,0.4,0.2,0.8,0.2c1,0,1.6-0.1,1.9-0.3
		c0.2-0.2,0.4-0.6,0.4-1.2c0-0.1,0-0.4,0-0.7c0-0.4,0-0.7,0-0.9c0-0.7,0.3-1.1,0.8-1.1c0.5,0,0.8,0.5,0.8,1.6c0,0.4,0,0.9-0.1,1.6
		c0,0.7-0.1,1.3-0.1,1.6c0,0.4,0,0.9,0.1,1.6c0,0.7,0.1,1.3,0.1,1.6c0,1.1-0.3,1.6-0.8,1.6c-0.5,0-0.7-0.3-0.8-0.8c0,0,0-0.4,0-1.3
		c0-0.9-0.1-1.4-0.3-1.7c-0.2-0.2-0.7-0.4-1.5-0.4c-0.6,0-0.9,0-1.1,0.1c-0.2,0.1-0.3,0.4-0.3,0.9V22c0,0.7,0,1.1,0.1,1.3
		c0.2,0.3,0.5,0.5,1.1,0.5h3.7c0.9,0,1.5-0.2,1.8-0.6c0.3-0.3,0.4-0.9,0.4-1.8c0-0.2,0-0.6-0.1-1.1c-0.1-0.5-0.1-0.9-0.1-1.1
		c0-0.3,0.1-0.6,0.3-0.8c0.2-0.3,0.4-0.4,0.7-0.4c0.6,0,0.9,0.4,0.9,1.2c0,0.3,0,0.8-0.1,1.5c0,0.7-0.1,1.2-0.1,1.5
		c0,0.3,0,0.6,0.1,1.1c0,0.5,0.1,0.9,0.1,1.1c0,0.9-0.4,1.4-1.2,1.4c-0.2,0-0.6,0-1.1-0.1c-0.5,0-0.9-0.1-1.1-0.1h-7
		c-0.3,0-0.8,0-1.4,0.1c-0.6,0-1.1,0.1-1.4,0.1c-0.7,0-1.1-0.3-1.1-1c0-0.6,0.3-1,0.9-1c0.1,0,0.3,0,0.6,0c0.3,0,0.5,0,0.6,0
		c0.5,0,0.9-0.2,1.1-0.5c0.1-0.2,0.2-0.6,0.2-1.2V10.5z"/>
	<path d="M66.6,9c-0.1,0-0.3,0-0.5,0c-0.2,0-0.4,0-0.5,0c-0.3,0-0.5-0.1-0.7-0.3c-0.2-0.2-0.3-0.5-0.3-0.7c0-0.3,0.1-0.5,0.3-0.7
		s0.5-0.3,0.8-0.3c0.4,0,1,0,1.8,0.1c0.8,0.1,1.4,0.1,1.8,0.1c0.3,0,0.7,0,1.2-0.1c0.6-0.1,1-0.1,1.2-0.1c0.7,0,1,0.3,1,1
		c0,0.7-0.4,1-1.1,1c-0.1,0-0.3,0-0.6,0s-0.4,0-0.6,0c-0.4,0-0.6,0-0.8,0.1c-0.1,0.1-0.2,0.3-0.2,0.7c0,0.3,0.1,0.8,0.2,1.4
		l1.9,11.1l2.5-13.2c0.2-1.3,0.8-2,1.6-2c0.5,0,0.9,0.2,1.1,0.7C77,8,77.2,8.5,77.3,9.1l2.5,13.2l1.9-11.1c0.1-0.6,0.1-1.1,0.1-1.4
		c0-0.4-0.1-0.6-0.2-0.7C81.4,9,81.2,9,80.8,9c-0.1,0-0.3,0-0.5,0c-0.2,0-0.4,0-0.5,0c-0.7,0-1.1-0.3-1.1-1c0-0.7,0.3-1,1-1
		c0.3,0,0.7,0,1.2,0.1c0.6,0.1,1,0.1,1.2,0.1c0.4,0,1,0,1.8-0.1c0.8-0.1,1.4-0.1,1.8-0.1c0.3,0,0.5,0.1,0.8,0.3
		c0.2,0.2,0.3,0.4,0.3,0.7c0,0.3-0.1,0.5-0.3,0.7c-0.2,0.2-0.4,0.3-0.7,0.3c-0.1,0-0.3,0-0.5,0c-0.2,0-0.4,0-0.5,0
		c-0.4,0-0.6,0.2-0.8,0.6c-0.1,0.1-0.1,0.5-0.2,1l-2.5,13.3c-0.1,0.7-0.3,1.1-0.4,1.4c-0.3,0.5-0.6,0.7-1.2,0.7
		c-0.8,0-1.4-0.6-1.6-1.9l-2.5-13.5l-2.5,13.5C73,25.4,72.5,26,71.7,26c-0.8,0-1.3-0.7-1.6-2.1l-2.5-13.3c-0.1-0.6-0.2-1-0.2-1.1
		C67.2,9.2,67,9,66.6,9z"/>
	<path d="M93,26c-1.4,0-2.7-0.6-3.9-1.7c0,0.3,0,0.5,0,0.8c0,0.6-0.3,0.9-1,0.9c-0.6,0-0.9-0.4-0.9-1.1c0-0.3,0-0.8,0.1-1.4
		c0.1-0.6,0.1-1.1,0.1-1.4c0-0.4,0-0.9-0.1-1.7c-0.1-0.7-0.1-1.3-0.1-1.6c0-0.9,0.3-1.4,0.9-1.4c0.5,0,0.8,0.6,0.9,1.7
		c0.2,1.6,0.4,2.6,0.6,3.2c0.6,1.1,1.6,1.7,3.2,1.7c1.1,0,1.9-0.3,2.5-0.9s0.9-1.5,0.9-2.6c0-1.4-0.8-2.3-2.3-2.9
		c-1.4-0.5-2.8-0.9-4.3-1.4c-1.5-0.8-2.3-2.1-2.3-3.9c0-1.5,0.4-2.8,1.3-3.8c0.9-1.1,2.1-1.6,3.6-1.6c1.3,0,2.5,0.4,3.5,1.3
		c0-0.7,0.3-1,0.8-1c0.2,0,0.4,0.1,0.6,0.2c0.2,0.1,0.3,0.3,0.3,0.5c0,0.3,0,0.8-0.1,1.4c0,0.6-0.1,1.1-0.1,1.4c0,0.3,0,0.8,0.1,1.4
		c0,0.6,0.1,1.1,0.1,1.4c0,0.8-0.3,1.2-0.9,1.2c-0.6,0-0.9-0.5-0.9-1.5c-0.1-1.5-0.2-2.4-0.4-2.8c-0.4-1-1.4-1.5-3-1.5
		c-1.8,0-2.8,1-2.8,3.1c0,1,0.3,1.7,0.8,2.1c0.5,0.4,1.6,0.9,3.1,1.2c1.6,0.4,2.7,0.8,3.3,1.3c1,0.8,1.5,2,1.5,3.6
		c0,1.7-0.5,3.1-1.4,4.2C96,25.4,94.7,26,93,26z"/>
</g>
<path id="_x30_6-Movie_Clapper" d="M6.4,13.9c0-0.3-0.2-0.6-0.3-0.9l15.5-5.2l-0.8-2.4C20.6,5,20.2,4.8,19.9,5L3,10.6
	c-0.4,0.1-0.5,0.5-0.4,0.9L3,12.6c-0.4,0.4-0.6,0.9-0.6,1.5c0,0.8,0.4,1.4,1,1.8v9.5c0,0.4,0.3,0.7,0.7,0.7h17.8
	c0.4,0,0.7-0.3,0.7-0.7V13.9H6.4z M16.3,7l2-0.7l-0.5,2l-2,0.7L16.3,7z M11.2,8.6l2-0.7l-0.5,2l-2,0.7L11.2,8.6z M4.4,15.1
	c-0.6,0-1-0.5-1-1s0.5-1,1-1c0.6,0,1,0.5,1,1S5,15.1,4.4,15.1z M6.1,10.3l2-0.7l-0.5,2l-2,0.7L6.1,10.3z M8.2,16.1H6l1.1-1.7h2.2
	L8.2,16.1z M12.4,14.4h2.2l-1.1,1.7h-2.2L12.4,14.4z M11.9,22.8v-4.6l3.6,2.3L11.9,22.8z M18.8,16.1h-2.2l1.1-1.7h2.2L18.8,16.1z"/>
</svg>
