<?xml version="1.0" encoding="utf-8"?>
<!-- Generator: Adobe Illustrator 25.4.1, SVG Export Plug-In . SVG Version: 6.00 Build 0)  -->
<svg version="1.1" id="Layer_1" xmlns="http://www.w3.org/2000/svg" xmlns:xlink="http://www.w3.org/1999/xlink" x="0px" y="0px"
	 viewBox="0 0 100 31" style="enable-background:new 0 0 100 31;" xml:space="preserve">
<g>
	<path d="M8.46,7.05h3.04c1.95,0,3.96-0.02,6.05-0.05l0.08,0.1l-0.74,4l-0.65,0.1l-0.77-2.92h-4.65v6.38h0.65
		c0.7,0,1.45-0.01,2.25-0.02c0.21-0.01,0.34-0.12,0.41-0.32l0.43-1.65l0.79-0.04c-0.02,1.16-0.04,2.03-0.04,2.61
		c0,0.56,0.01,1.42,0.04,2.57l-0.79,0.06l-0.44-1.69c-0.06-0.22-0.19-0.33-0.37-0.34c-0.82-0.02-1.58-0.02-2.28-0.02h-0.64v4.12
		c0,0.88,0.01,1.75,0.02,2.62h4.8l1.51-3.16l0.73-0.11l-0.29,4.49l-0.08,0.08c-1.99-0.02-3.94-0.04-5.82-0.04H8.52
		c-1.03,0-2.1,0.01-3.19,0.04l-0.06-0.6l1.61-0.44c0.2-0.06,0.31-0.18,0.32-0.37c0.01-0.32,0.01-0.68,0.02-1.07
		c0-0.4,0.01-0.83,0.01-1.31v-9.57c0-0.4,0-0.76-0.01-1.09c0-0.33-0.01-0.63-0.02-0.9c-0.01-0.21-0.1-0.34-0.29-0.4L5.31,7.61
		L5.27,7C6.39,7.03,7.46,7.05,8.46,7.05z"/>
	<path d="M19.99,16.97h6.68v1.75h-6.68V16.97z"/>
	<path d="M31.93,22.39c0.01,0.23,0.11,0.37,0.3,0.42l1.54,0.42l0.04,0.62c-1.08-0.02-1.97-0.04-2.67-0.04
		c-0.69,0-1.59,0.01-2.7,0.04l-0.06-0.6l1.61-0.44c0.21-0.06,0.32-0.19,0.32-0.37c0.02-0.65,0.02-1.44,0.02-2.39v-9.57
		c0-0.8-0.01-1.47-0.02-1.99c-0.01-0.21-0.1-0.34-0.29-0.4l-1.61-0.47L28.38,7c1.12,0.03,1.98,0.05,2.58,0.05
		c0.78,0,1.53-0.02,2.23-0.05l7.99,10c0.32,0.4,0.65,0.82,0.98,1.27c-0.02-0.55-0.02-1.08-0.02-1.6v-6.26
		c0-0.78-0.01-1.45-0.02-2.01C42.11,8.23,42,8.11,41.8,8.06l-1.54-0.42L40.23,7c1.1,0.03,2,0.05,2.69,0.05c0.7,0,1.6-0.02,2.68-0.05
		l0.06,0.61l-1.63,0.47c-0.18,0.06-0.28,0.19-0.29,0.4c-0.02,0.53-0.04,1.19-0.04,1.99v13.34l-1.38,0.13l-9.46-11.85
		c-0.28-0.36-0.6-0.79-0.97-1.29c0.02,0.59,0.02,1.14,0.02,1.63v7.6C31.91,20.99,31.92,21.77,31.93,22.39z"/>
	<path d="M50.46,7.05h3.04c1.95,0,3.96-0.02,6.05-0.05l0.08,0.1l-0.74,4l-0.65,0.1l-0.77-2.92h-4.65v6.38h0.65
		c0.7,0,1.45-0.01,2.25-0.02c0.21-0.01,0.34-0.12,0.41-0.32l0.43-1.65l0.79-0.04c-0.02,1.16-0.04,2.03-0.04,2.61
		c0,0.56,0.01,1.42,0.04,2.57l-0.79,0.06l-0.44-1.69c-0.06-0.22-0.19-0.33-0.37-0.34c-0.82-0.02-1.58-0.02-2.28-0.02h-0.64v4.12
		c0,0.88,0.01,1.75,0.02,2.62h4.8l1.51-3.16l0.73-0.11l-0.29,4.49l-0.08,0.08c-1.99-0.02-3.94-0.04-5.82-0.04h-3.18
		c-1.03,0-2.1,0.01-3.19,0.04l-0.06-0.6l1.61-0.44c0.2-0.06,0.31-0.18,0.32-0.37c0.01-0.32,0.01-0.68,0.02-1.07
		c0-0.4,0.01-0.83,0.01-1.31v-9.57c0-0.4,0-0.76-0.01-1.09c0-0.33-0.01-0.63-0.02-0.9c-0.01-0.21-0.1-0.34-0.29-0.4l-1.61-0.47
		L47.27,7C48.39,7.03,49.46,7.05,50.46,7.05z"/>
	<path d="M77.65,17.29c0.14,0.43,0.24,0.86,0.32,1.29c0.13-0.44,0.26-0.86,0.4-1.25l2.5-7.19c0.16-0.47,0.27-0.83,0.34-1.09
		c0.07-0.25,0.1-0.45,0.1-0.61c0-0.14-0.04-0.24-0.11-0.31C81.13,8.06,81.01,8,80.86,7.96l-1.15-0.32L79.67,7
		c1.16,0.03,2.11,0.05,2.83,0.05c0.76,0,1.63-0.02,2.61-0.05l0.06,0.61l-1.29,0.37c-0.3,0.1-0.53,0.24-0.69,0.44
		s-0.31,0.51-0.46,0.94l-5.18,14.45l-1.31,0.11l-3.04-9.52c-0.16-0.5-0.32-1.05-0.49-1.63c-0.19,0.58-0.38,1.12-0.55,1.62
		l-3.32,9.43l-1.3,0.11L62.87,9.51c-0.18-0.55-0.36-0.93-0.53-1.12c-0.17-0.2-0.41-0.34-0.71-0.44l-1.17-0.34L60.42,7
		c1.08,0.03,2.17,0.05,3.27,0.05c1.44,0,2.85-0.02,4.23-0.05l0.07,0.61L66.8,7.95C66.64,8,66.52,8.06,66.45,8.13
		c-0.07,0.07-0.11,0.18-0.11,0.32c0,0.16,0.03,0.37,0.09,0.62c0.06,0.26,0.16,0.6,0.29,1.04l2.23,7.17
		c0.13,0.43,0.24,0.86,0.32,1.29c0.13-0.44,0.26-0.86,0.38-1.25l3.55-10.34l1.21-0.11L77.65,17.29z"/>
	<path d="M93.64,8.14c-0.51-0.2-1.07-0.3-1.67-0.3c-0.85,0-1.57,0.25-2.16,0.74c-0.59,0.5-0.88,1.14-0.88,1.92
		c0,0.47,0.1,0.88,0.29,1.21c0.19,0.34,0.45,0.64,0.77,0.9c0.32,0.26,0.69,0.5,1.1,0.71c0.41,0.21,0.84,0.42,1.28,0.62
		c0.49,0.23,0.98,0.49,1.48,0.76c0.5,0.28,0.94,0.6,1.33,0.98c0.39,0.38,0.71,0.83,0.95,1.36c0.24,0.53,0.37,1.17,0.37,1.92
		c0,1.63-0.61,2.9-1.84,3.83c-1.23,0.93-2.84,1.39-4.85,1.39c-1.45,0-2.88-0.23-4.29-0.68l-0.07-0.11l0.64-4.32l0.74-0.12l0.9,3.67
		c0.58,0.26,1.22,0.4,1.92,0.4c1.02,0,1.84-0.26,2.46-0.77c0.62-0.52,0.93-1.21,0.93-2.07c0-0.49-0.1-0.9-0.29-1.24
		s-0.45-0.64-0.78-0.91c-0.33-0.27-0.7-0.51-1.12-0.71s-0.85-0.42-1.3-0.62c-0.49-0.24-0.98-0.49-1.47-0.76
		c-0.49-0.26-0.92-0.58-1.31-0.96c-0.38-0.38-0.7-0.83-0.94-1.35s-0.36-1.16-0.36-1.9c0-1.53,0.58-2.75,1.75-3.65
		s2.69-1.36,4.55-1.36c1.19,0,2.53,0.18,4.05,0.55l0.07,0.11l-0.73,3.87l-0.66,0.11L93.64,8.14z"/>
</g>
</svg>
